<?xml version="1.0" encoding="utf-8"?>
<svg xmlns="http://www.w3.org/2000/svg"
	xmlns:xlink="http://www.w3.org/1999/xlink"
	width="44px" height="44px" viewBox="0 0 22 22">
<path fillRule="evenodd" d="M 11 0.01C 4.93 0.01 0.01 4.93 0.01 11 0.01 15.52 2.74 19.41 6.65 21.1 6.62 20.33 6.65 19.42 6.84 18.59 7.06 17.69 8.26 12.58 8.26 12.58 8.26 12.58 7.91 11.87 7.91 10.83 7.91 9.2 8.86 7.98 10.04 7.98 11.04 7.98 11.53 8.73 11.53 9.63 11.53 10.64 10.88 12.15 10.55 13.55 10.27 14.72 11.14 15.67 12.29 15.67 14.38 15.67 15.79 12.99 15.79 9.81 15.79 7.39 14.16 5.58 11.2 5.58 7.85 5.58 5.77 8.08 5.77 10.86 5.77 11.82 6.05 12.5 6.5 13.03 6.7 13.27 6.73 13.36 6.65 13.64 6.6 13.84 6.48 14.33 6.43 14.53 6.36 14.81 6.13 14.9 5.88 14.8 4.34 14.17 3.62 12.49 3.62 10.59 3.62 7.46 6.26 3.7 11.5 3.7 15.71 3.7 18.48 6.75 18.48 10.02 18.48 14.34 16.08 17.58 12.53 17.58 11.34 17.58 10.22 16.93 9.84 16.2 9.84 16.2 9.2 18.74 9.06 19.23 8.83 20.07 8.39 20.91 7.97 21.57 8.93 21.84 9.95 21.99 11 21.99 17.07 21.99 21.99 17.07 21.99 11 21.99 4.93 17.07 0.01 11 0.01Z" fill="rgb(255,255,255)"/></svg>