<?xml version="1.0" encoding="utf-8"?>
<svg xmlns="http://www.w3.org/2000/svg"
	xmlns:xlink="http://www.w3.org/1999/xlink"
	width="32px" height="32px" viewBox="0 0 16 16">
<path fillRule="evenodd" d="M 15.53 15.53C 14.95 16.12 14 16.12 13.41 15.53 13.41 15.53 10.76 12.89 10.76 12.89 9.68 13.58 8.39 14 7 14 3.13 14-0 10.87-0 7-0 3.13 3.13-0 7-0 10.87-0 14 3.13 14 7 14 8.39 13.58 9.68 12.89 10.76 12.89 10.76 15.53 13.41 15.53 13.41 16.12 14 16.12 14.95 15.53 15.53ZM 7 2C 4.24 2 2 4.24 2 7 2 9.76 4.24 12 7 12 9.76 12 12 9.76 12 7 12 4.24 9.76 2 7 2Z" fill="rgb(255,255,255)"/></svg>