<?xml version="1.0" encoding="utf-8"?>
<svg xmlns="http://www.w3.org/2000/svg"
	xmlns:xlink="http://www.w3.org/1999/xlink"
	width="44px" height="44px" viewBox="0 0 22 22">
<path fillRule="evenodd" d="M 20.31 21.99C 20.31 21.99 1.69 21.99 1.69 21.99 0.75 21.99-0.01 21.3-0.01 20.37-0.01 20.37-0.01 1.7-0.01 1.7-0.01 0.77 0.75 0.01 1.69 0.01 1.69 0.01 20.31 0.01 20.31 0.01 21.25 0.01 22.01 0.77 22.01 1.7 22.01 1.7 22.01 20.37 22.01 20.37 22.01 21.3 21.25 21.99 20.31 21.99ZM 8.85 4.25C 7.85 4.25 7.41 4.41 6.75 4.73 6.09 5.05 5.62 5.62 5.38 6.13 5.13 6.64 5.01 7.26 5.01 8.29 5.01 8.29 5.01 9.3 5.01 9.3 5.01 9.3 2.99 9.3 2.99 9.3 2.99 9.3 2.99 11.97 2.99 11.97 2.99 11.97 5.01 11.97 5.01 11.97 5.01 11.97 5.01 20 5.01 20 5.01 20 7.99 20 7.99 20 7.99 20 7.99 11.97 7.99 11.97 7.99 11.97 10.71 11.97 10.71 11.97 10.71 11.97 11.32 9.3 11.32 9.3 11.32 9.3 7.99 9.3 7.99 9.3 7.99 9.3 7.99 8.35 7.99 8.35 7.99 7.72 8.11 7.3 8.33 7.08 8.56 6.86 9.53 6.73 10.06 6.73 10.59 6.73 11.02 6.98 11.56 7.29 11.56 7.29 12.2 4.87 12.2 4.87 11.21 4.59 9.88 4.25 8.85 4.25Z" fill="rgb(255,255,255)"/></svg>