<?xml version="1.0" encoding="utf-8"?>
<svg xmlns="http://www.w3.org/2000/svg"
	xmlns:xlink="http://www.w3.org/1999/xlink"
	width="48px" height="40px" viewBox="0 0 24 20">
<path fillRule="evenodd" d="M 16.32 0.01C 18.23-0.03 19.24 0.69 20.21 1.59 21.03 1.52 22.1 1.05 22.73 0.72 22.93 0.61 23.14 0.49 23.34 0.38 22.98 1.37 22.49 2.16 21.74 2.75 21.58 2.88 21.41 3.06 21.2 3.14 21.2 3.15 21.2 3.15 21.2 3.15 22.27 3.14 23.15 2.65 23.99 2.38 23.99 2.38 23.99 2.39 23.99 2.39 23.55 3.11 22.95 3.84 22.32 4.36 22.06 4.57 21.81 4.78 21.55 4.99 21.57 6.15 21.54 7.26 21.32 8.23 20.1 13.91 16.84 17.76 11.69 19.41 9.84 20 6.85 20.24 4.73 19.7 3.68 19.43 2.73 19.13 1.84 18.73 1.34 18.51 0.88 18.27 0.44 17.99 0.3 17.9 0.16 17.81 0.01 17.72 0.49 17.74 1.05 17.87 1.58 17.78 2.07 17.7 2.54 17.72 2.99 17.62 4.1 17.37 5.09 17.04 5.94 16.53 6.35 16.28 6.98 15.99 7.27 15.63 6.72 15.64 6.22 15.51 5.81 15.36 4.22 14.79 3.29 13.72 2.69 12.13 3.17 12.18 4.56 12.31 4.88 12.03 4.28 12 3.69 11.64 3.28 11.37 2 10.54 0.95 9.16 0.96 7.04 1.13 7.12 1.3 7.2 1.46 7.29 1.79 7.42 2.11 7.5 2.5 7.58 2.66 7.61 2.98 7.71 3.17 7.64 3.16 7.64 3.15 7.64 3.14 7.64 2.9 7.35 2.49 7.15 2.24 6.83 1.42 5.78 0.65 4.17 1.14 2.24 1.26 1.76 1.46 1.33 1.67 0.93 1.68 0.93 1.68 0.94 1.69 0.94 1.79 1.15 2 1.3 2.14 1.47 2.56 2 3.07 2.48 3.6 2.91 5.4 4.35 7.01 5.24 9.61 5.9 10.27 6.06 11.03 6.19 11.82 6.19 11.6 5.53 11.67 4.46 11.84 3.82 12.28 2.21 13.23 1.05 14.63 0.43 14.96 0.28 15.33 0.17 15.72 0.08 15.92 0.06 16.12 0.03 16.32 0.01Z" fill="rgb(255,255,255)"/></svg>