<?xml version="1.0" encoding="utf-8"?>
<svg xmlns="http://www.w3.org/2000/svg"
	xmlns:xlink="http://www.w3.org/1999/xlink"
	width="44px" height="44px" viewBox="0 0 22 22">
<path fillRule="evenodd" d="M 19.28 21.99C 19.28 21.99 2.72 21.99 2.72 21.99 1.22 21.99 0.01 20.78 0.01 19.28 0.01 19.28 0.01 2.72 0.01 2.72 0.01 1.22 1.22 0.01 2.72 0.01 2.72 0.01 19.28 0.01 19.28 0.01 20.78 0.01 21.99 1.22 21.99 2.72 21.99 2.72 21.99 19.28 21.99 19.28 21.99 20.78 20.78 21.99 19.28 21.99ZM 11 7C 9.39 7 8 7.95 7.37 9.32 7.37 9.32 7.36 9.32 7.36 9.32 7.36 9.33 7.35 9.35 7.35 9.37 7.31 9.45 7.28 9.54 7.24 9.62 7.23 9.67 7.21 9.71 7.2 9.75 7.17 9.84 7.14 9.93 7.12 10.02 7.11 10.07 7.1 10.11 7.09 10.15 7.07 10.25 7.05 10.35 7.04 10.45 7.03 10.49 7.02 10.53 7.02 10.57 7 10.71 7 10.85 7 11 7 13.21 8.79 15 11 15 13.21 15 15 13.21 15 11 15 10.85 15 10.71 14.98 10.57 14.98 10.53 14.97 10.49 14.96 10.45 14.95 10.35 14.93 10.25 14.91 10.15 14.9 10.11 14.89 10.07 14.88 10.02 14.86 9.93 14.83 9.84 14.8 9.75 14.79 9.71 14.77 9.67 14.76 9.62 14.72 9.54 14.69 9.45 14.65 9.37 14.65 9.35 14.64 9.33 14.64 9.32 14.64 9.32 14.63 9.32 14.63 9.32 14 7.95 12.61 7 11 7ZM 19.01 4.08C 19.01 3.48 18.52 3 17.93 3 17.93 3 17.05 3 17.05 3 16.46 3 15.97 3.48 15.97 4.08 15.97 4.08 15.97 4.92 15.97 4.92 15.97 5.51 16.46 6 17.05 6 17.05 6 17.93 6 17.93 6 18.52 6 19.01 5.51 19.01 4.92 19.01 4.92 19.01 4.08 19.01 4.08ZM 19.98 9.01C 19.98 9.01 16.71 9.01 16.71 9.01 16.86 9.57 17.05 10.44 17.05 11.05 17.05 14.72 13.97 17.05 11 17.05 7.96 17.05 4.95 14.72 4.95 11.05 4.95 10.44 5.17 9.57 5.32 9.01 5.32 9.01 2.03 8.98 2.03 8.98 2.03 8.98 2.03 18.89 2.03 18.89 2.03 19.49 2.51 19.98 3.11 19.98 3.11 19.98 18.89 19.98 18.89 19.98 19.49 19.98 19.98 19.49 19.98 18.89 19.98 18.89 19.98 9.01 19.98 9.01Z" fill="rgb(255,255,255)"/></svg>